# xmcd
#
# Track frame offsets:
#	183
#	12898
#	27785
#	40485
#	51705
#	65510
#	79500
#	96745
#	114138
#	127015
#	145195
#	155953
#	172988
#	190985
#	199975
#	211155
#	229100
#
# Disc length: 3264 seconds
#
# Revision: 0
# Processed by: cddbd v1.5.1PL0 Copyright (c) Steve Scherf et al.
# Submitted via: dBpowerAMP V4.0
#
DISCID=f60cbe11
DTITLE=Marvin Gaye - I heard it through the Grapevine - What's going on - Distant Lover
DYEAR=1900
DGENRE=Blues
TTITLE0=Stubborn Fellow
TTITLE1=I Heard It Through The Grapevine
TTITLE2=Try It Baby
TTITLE3=Ain't No Mountain High Enough
TTITLE4=Your Precious Love
TTITLE5=Inner City Blues
TTITLE6=Trouble Man
TTITLE7=What's Going On
TTITLE8=Can I Get A Witness
TTITLE9=Let's Get It On
TTITLE10=Forever
TTITLE11=That's The Way Love Is
TTITLE12=I Want You
TTITLE13=How Can I Forget
TTITLE14=You
TTITLE15=Distant Lover
TTITLE16=After The Dance
EXTD=
EXTT0=
EXTT1=
EXTT2=
EXTT3=
EXTT4=
EXTT5=
EXTT6=
EXTT7=
EXTT8=
EXTT9=
EXTT10=
EXTT11=
EXTT12=
EXTT13=
EXTT14=
EXTT15=
EXTT16=
PLAYORDER=
